<?xml version="1.0" encoding="utf-8"?>
<!-- Generator: Adobe Illustrator 24.3.0, SVG Export Plug-In . SVG Version: 6.00 Build 0)  -->
<svg version="1.1" id="Layer_1" xmlns="http://www.w3.org/2000/svg" xmlns:xlink="http://www.w3.org/1999/xlink" x="0px" y="0px"
	 viewBox="0 0 654.61 185.82" style="enable-background:new 0 0 654.61 185.82;" xml:space="preserve">
<style type="text/css">
	.st0{fill:#FFFFFF;}
</style>
<path class="st0" d="M127.6,163.64V65.8l-42.17,64.01h-0.86L42.82,66.45v97.19H10.28V13.78h35.54l39.39,63.37l39.39-63.37h35.54
	v149.86H127.6z"/>
<path class="st0" d="M197.6,163.64V13.78h32.97v149.86H197.6z"/>
<path class="st0" d="M471.62,13.78v149.86h-16.91V13.78H471.62z"/>
<path class="st0" d="M641.39,118.15c-3.85,9.21-9.31,17.16-16.38,23.87c-7.06,6.71-15.49,11.99-25.26,15.84
	c-9.78,3.85-20.52,5.78-32.22,5.78h-52.02V13.78h52.02c11.7,0,22.44,1.89,32.22,5.67c9.78,3.78,18.2,9.03,25.26,15.73
	c7.06,6.71,12.52,14.63,16.38,23.76c3.85,9.14,5.78,18.98,5.78,29.54C647.17,99.06,645.24,108.94,641.39,118.15z M625.22,65.59
	c-2.93-7.28-7.06-13.59-12.42-18.95s-11.88-9.56-19.59-12.63c-7.71-3.07-16.27-4.6-25.69-4.6h-35.11v118.6h35.11
	c9.42,0,17.98-1.5,25.69-4.5c7.71-3,14.24-7.17,19.59-12.52c5.35-5.35,9.49-11.59,12.42-18.73c2.92-7.14,4.39-14.91,4.39-23.34
	C629.61,80.65,628.15,72.87,625.22,65.59z"/>
<path class="st0" d="M366.68,127.1c-7.36,4.74-16.12,7.51-25.53,7.51c-26.07,0-47.2-21.13-47.2-47.2c0-26.07,21.13-47.2,47.2-47.2
	s47.2,21.13,47.2,47.2c0,10.18-3.24,19.61-8.72,27.32l43.69,38.18l4.4-4.76l5.84-6.33l-6.49-5.66l-14.28-12.44
	c5.6-10.94,8.78-23.32,8.78-36.45c0-44.26-35.88-80.14-80.14-80.14s-80.14,35.88-80.14,80.14c0,44.26,35.88,80.14,80.14,80.14
	c13.69,0,26.58-3.44,37.85-9.49l15.28,13.9l6.15,5.59l5.64-6.11l4.87-5.27L366.68,127.1z"/>
</svg>
